<?xml version="1.0" encoding="utf-8"?>
<svg version="1.1" id="Layer_1" xmlns="http://www.w3.org/2000/svg" xmlns:xlink="http://www.w3.org/1999/xlink" x="0px" y="0px" viewBox="0 0 137.9 120.5" enable-background="new 0 0 137.9 120.5" xml:space="preserve">
	<g>
		<path fill="#46433A" d="M120.4,57.2C118.8,25.4,92.4,0,60.2,0C27,0,0,27,0,60.2s27,60.2,60.2,60.2c14.1,0,27.1-4.9,37.3-13c3.8,2,8.1,3.1,12.7,3.1c15.3,0,27.7-12.4,27.7-27.7C137.9,71.2,130.6,61.2,120.4,57.2z M110.2,100.6c-9.7,0-17.7-7.9-17.7-17.7c0-9.7,7.9-17.7,17.7-17.7c9.7,0,17.7,7.9,17.7,17.7C127.9,92.6,120,100.6,110.2,100.6z M10,60.2C10,32.5,32.5,10,60.2,10c26,0,47.5,19.9,50,45.2c-15.2,0-27.7,12.4-27.7,27.7c0,7,2.6,13.3,6.9,18.2c-8.2,5.9-18.3,9.4-29.2,9.4C32.5,110.5,10,87.9,10,60.2z"/>
		<path opacity="0.15" d="M7.8,38.2c1.5-0.7,2.9-1,4.3-1c0.9,0,1.8,.5,2.8,1.4c2.4-5,5.7-9.6,9.6-13.6C16.9,24.9,11.4,29.3,7.8,38.2z"/>
		<path fill="#64B6B1" d="M76.5,79.1c-6,7-11.4,10.5-16.1,10.5c-3.1,0-6.7-1.6-10.8-4.9c-4.4-3.6-7-7.4-7.6-11.3c1.3-2,3.3-4,6-6c3.1-2.4,6-3.8,8.7-4.2c2.6-0.4,5.2,0,7.6,1.1c-0.2-3.1-1.4-5.7-3.3-7.9c-2.2-2.2-5-3.3-8.2-3.3c-4.8,0-9.4,1.9-13.9,5.8			c-3.2,2.8-5.7,5.9-7.6,9.2c3.7-16,5.6-26.6,5.7-32.1c0.1-8.1-3.2-12.2-10-12.5c-7.6-0.2-13.2,4.1-16.7,12.9c1.5-0.7,2.9-1,4.2-1c1.1,0,2.2,0.7,3.3,2c1.7,2.1,2.4,5.2,2.1,9.5c-0.2,3.1-1,9.8-2.2,20.1c-.8,7-1.4,12.6-1.7,16.9c3.5,6.6,8.5,12.4,14.6,16.8c-0.3-2.9-0.3-8.9,0-18c1.8,4.3,5.2,8.5,10.1,12.5c5,4,9.3,6,13,6c5.2,0,10.5-2.4,15.9-7.3c3.9-3.5,7-7.5,9.3-11.8L76.5,79.1z"/>
		<path opacity="0.15" d="M16,82.1c0,0.6-0.1,1.2-0.1,1.8c3.5,6.6,8.5,12.4,14.6,16.8c-0.1-0.6-0.1-1.3-0.2-2.1C24.4,94.2,19.5,88.6,16,82.1z"/>
	</g>
</svg>
